<svg width="43" height="45" viewBox="0 0 43 45" fill="none" xmlns="http://www.w3.org/2000/svg">
<path d="M27.9498 22.351C27.9498 26.0493 25.0574 29.0561 21.5 29.0561C17.9426 29.0561 15.0502 26.0493 15.0502 22.351C15.0502 18.6528 17.9426 15.6459 21.5 15.6459C25.0574 15.6459 27.9498 18.6528 27.9498 22.351ZM43 6.70512V37.9948C43 41.693 40.1077 44.6998 36.5502 44.6998L6.44979 44.7019C2.89235 44.7019 0 41.6951 0 37.9969V6.70507C0 3.00682 2.89235 0 6.44979 0H36.5481C40.1056 0 43 3.00897 43 6.70512ZM32.249 22.351C32.249 16.1888 27.4257 11.1766 21.5 11.1766C15.5724 11.1766 10.751 16.1908 10.751 22.351C10.751 28.5132 15.5743 33.5254 21.5 33.5254C27.4276 33.5254 32.249 28.5134 32.249 22.351ZM36.5502 8.94086C36.5502 8.80676 36.528 8.64961 36.5078 8.49246C36.4857 8.35836 36.4433 8.22426 36.3788 8.09016C36.3345 7.95815 36.27 7.82405 36.1833 7.68995C36.1188 7.5768 36.012 7.46575 35.9253 7.3547C35.7097 7.15354 35.494 6.99639 35.2159 6.88534C34.6999 6.66324 34.0972 6.66324 33.5812 6.88534C33.3011 6.99849 33.0874 7.15354 32.8717 7.3547C32.4868 7.77795 32.249 8.33739 32.249 8.94085C32.249 9.5443 32.4848 10.1038 32.8717 10.527C33.2809 10.9293 33.8392 11.1765 34.3995 11.1765C34.9578 11.1765 35.5182 10.9293 35.9253 10.5291C36.0119 10.4159 36.1188 10.3049 36.1833 10.1917C36.2699 10.0576 36.3344 9.92354 36.3768 9.78944C36.4413 9.65534 36.4836 9.52123 36.5058 9.38713C36.5279 9.23208 36.5502 9.09592 36.5502 8.94086Z" fill="white"/>
</svg>
